<?xml version="1.0" standalone="no"?>
<!DOCTYPE svg PUBLIC "-//W3C//DTD SVG 20010904//EN"
 "http://www.w3.org/TR/2001/REC-SVG-20010904/DTD/svg10.dtd">
<svg version="1.0" xmlns="http://www.w3.org/2000/svg"
 width="361.000000pt" height="442.000000pt" viewBox="0 0 361.000000 442.000000"
 preserveAspectRatio="xMidYMid meet">

<g transform="translate(0.000000,442.000000) scale(0.100000,-0.100000)"
fill="#000000" stroke="none">
<path d="M240 2746 l0 -1564 113 -47 c61 -25 144 -59 182 -75 141 -59 252
-102 315 -124 36 -13 92 -37 125 -53 33 -17 105 -45 160 -63 55 -17 112 -38
127 -46 l28 -15 0 -114 c0 -62 -4 -116 -9 -119 -11 -7 -225 -72 -277 -85 -22
-5 -100 -27 -174 -50 -74 -23 -142 -41 -152 -41 -9 0 -19 -4 -22 -8 -3 -5 -48
-17 -100 -27 l-96 -19 6 -115 c4 -64 8 -118 11 -120 6 -8 227 52 288 78 31 14
143 48 215 66 36 9 126 37 200 62 74 25 178 57 230 73 l95 27 3 265 2 266 -42
20 c-49 23 -286 120 -398 162 -41 16 -136 54 -210 85 -74 31 -173 71 -220 89
-143 57 -227 99 -207 104 14 3 17 10 13 25 -3 12 -6 676 -6 1475 l0 1452 -100
0 -100 0 0 -1564z"/>
<path d="M612 4097 c-75 -37 -102 -130 -62 -211 28 -57 63 -79 130 -84 66 -5
121 15 145 52 63 96 20 227 -84 256 -52 14 -80 12 -129 -13z"/>
<path d="M1741 3714 l-23 -16 4 -1317 c2 -724 4 -1457 6 -1629 2 -303 3 -312
22 -312 11 0 20 5 20 11 0 6 8 8 18 5 18 -6 70 6 277 65 61 17 196 53 300 80
105 27 210 56 235 64 25 7 65 17 90 20 25 4 86 19 135 35 95 30 251 70 452
117 l123 28 0 1420 c0 810 -4 1426 -9 1434 -7 11 -25 13 -79 8 -39 -4 -77 -10
-86 -13 -14 -6 -16 -135 -18 -1336 l-3 -1331 -45 -13 c-25 -8 -103 -28 -175
-45 -71 -18 -168 -42 -214 -55 -46 -13 -90 -24 -97 -24 -8 0 -43 -9 -77 -20
-131 -43 -308 -90 -335 -90 -11 0 -69 -15 -130 -34 -99 -30 -179 -49 -198 -47
-4 1 -6 678 -5 1506 l2 1505 -83 0 c-61 0 -90 -4 -107 -16z"/>
<path d="M2546 3693 l-398 -3 3 -1314 c3 -723 7 -1318 11 -1321 7 -7 130 26
403 110 44 14 114 34 155 45 129 36 244 73 258 83 9 7 12 261 12 1208 l0 1199
-22 -2 c-13 -2 -202 -4 -422 -5z m99 -2473 c3 -5 -1 -10 -10 -10 -9 0 -13 5
-10 10 3 6 8 10 10 10 2 0 7 -4 10 -10z"/>
<path d="M680 2625 l0 -1065 38 -19 c20 -10 48 -22 62 -26 32 -9 136 -54 268
-116 57 -27 105 -49 108 -49 2 0 43 -19 91 -41 184 -87 217 -95 244 -62 12 13
14 219 17 1230 l2 1213 -415 0 -415 0 0 -1065z"/>
<path d="M482 743 c-49 -24 -75 -68 -80 -132 -6 -107 52 -166 165 -166 72 0
105 19 137 81 42 79 17 175 -56 217 -38 22 -122 22 -166 0z"/>
</g>
</svg>
